# xmcd
#
# Track frame offsets:
#	150
#	14700
#	35175
#	55275
#	75862
#	91987
#	110212
#	128237
#	147887
#	161925
#	177825
#	196575
#	215625
#	236100
#	253425
#	272025
#
# Disc length: 3846 seconds
#
# Revision: 1
# Processed by: cddbd v1.5.1PL0 Copyright (c) Steve Scherf et al.
# Submitted via: audiograbber 1.81.02
#
DISCID=f20f0410
DTITLE=Сборник - Транзит Москва - Германия
DYEAR=1994
DGENRE=
TTITLE0=Валерий Леонтьев - Мулатка шоколадка
TTITLE1=А. Глызин - Зимний сад
TTITLE2=Светлана Лазарева - Возвращайся домой
TTITLE3=Азиза - Как безумно и просто
TTITLE4=Татьяна Овсиенко - Птица - печаль
TTITLE5=В. Чайка - Мона Лиза
TTITLE6=Ирина Аллегрова - Угонщица
TTITLE7=Борис Моисеев - Эгоист
TTITLE8=Светлана Лазарева - Под знаком тельца
TTITLE9=Татьяна Овсиенко - Капитан
TTITLE10=Алексей Глызин - Счастье ты мое
TTITLE11=Борис Моисеев - Дитя Порока
TTITLE12=И.Понаровская - Романс одиноких
TTITLE13=Виктор Чайка - Плакала роза
TTITLE14=Ирина Аллегрова - Транзитный пассажир
TTITLE15=Виктор Чайка - Дорогая женщина
EXTD=
EXTT0=
EXTT1=
EXTT2=
EXTT3=
EXTT4=
EXTT5=
EXTT6=
EXTT7=
EXTT8=
EXTT9=
EXTT10=
EXTT11=
EXTT12=
EXTT13=
EXTT14=
EXTT15=
PLAYORDER=
